# xmcd
#
# Track frame offsets: 
#        150
#        12353
#        26118
#        38569
#        50292
#        61394
#        72515
#        86331
#        97269
#        108860
#        121797
#        134001
#        145261
#        157947
#        171589
#
# Disc length: 2421 seconds
#
# Revision: 5
# Processed by: cddbd v1.5.2PL0 Copyright (c) Steve Scherf et al.
# Submitted via: ExactAudioCopy v0.99pb5
#
DISCID=ce09730f
DTITLE=Various Artist - Classic Country - TL 626-19 - 1950 - 1956 - CD 1
DYEAR=2001
DGENRE=Country
TTITLE0=Hank Williams - Long gone lonesome blues
TTITLE1=Red Foley - Birmingham bounce
TTITLE2=Lefty Frizzell - I love you a thousand ways
TTITLE3=Eddy Arnold - I really don't want to know
TTITLE4=Cuttin' Capers With The Carlisles - No help wanted
TTITLE5=Hank Snow - Let me go, lover
TTITLE6=Moon Mullican - I'll sail my ship alone
TTITLE7=Webb Pierce - There stands the glass
TTITLE8=Carl Smith - Loose talk
TTITLE9=Kitty Wells - Makin' believe
TTITLE10=Jimmy Heap - Release me
TTITLE11=Tommy Collins - You better not do that
TTITLE12=Porter Wagoner - A satisfied mind
TTITLE13=Stuart Hamblen - (Remember me) I'm the one who loves you
TTITLE14=Johnnie And Jack - Goodnight, sweetheart, goodnight
EXTD=
EXTT0=
EXTT1=
EXTT2=
EXTT3=
EXTT4=
EXTT5=
EXTT6=
EXTT7=
EXTT8=
EXTT9=
EXTT10=
EXTT11=
EXTT12=
EXTT13=
EXTT14=
PLAYORDER=
